<?xml version="1.0" encoding="UTF-8"?>
<svg version="1.1" xmlns="http://www.w3.org/2000/svg" width="80" height="80">
<path d="M0 0 C1.16781006 0.00523682 2.33562012 0.01047363 3.53881836 0.01586914 C4.79887695 0.0190918 6.05893555 0.02231445 7.35717773 0.02563477 C8.6976732 0.03399136 10.03816799 0.04245632 11.37866211 0.05102539 C12.72306153 0.05603879 14.06746271 0.06060197 15.41186523 0.06469727 C18.71334151 0.07653051 22.01473014 0.09301568 25.31616211 0.11352539 C22.91459698 5.10014893 19.49522415 9.70266259 14.30053711 12.00805664 C12.37866211 12.55102539 12.37866211 12.55102539 9.31616211 13.11352539 C8.54660075 15.4588649 8.54660075 15.4588649 8.31616211 18.11352539 C9.31616211 20.11352539 9.31616211 20.11352539 11.31616211 21.11352539 C13.9708226 20.88308675 13.9708226 20.88308675 16.31616211 20.11352539 C17.30616211 17.14352539 18.29616211 14.17352539 19.31616211 11.11352539 C20.30616211 11.11352539 21.29616211 11.11352539 22.31616211 11.11352539 C22.05995527 12.72009299 21.7856034 14.32377369 21.50366211 15.92602539 C21.3528418 16.8193457 21.20202148 17.71266602 21.04663086 18.63305664 C20.24466865 21.35629731 19.57154139 22.42736088 17.31616211 24.11352539 C13.88822065 24.9237661 11.3908999 25.462089 8.00366211 24.36352539 C6.31616211 23.11352539 6.31616211 23.11352539 4.31616211 20.11352539 C3.75631664 15.79471748 3.77169075 13.85598633 6.37866211 10.30102539 C9.65201719 7.86342054 12.39719278 7.12955448 16.31616211 6.11352539 C18.00952304 4.62931636 18.00952304 4.62931636 19.31616211 3.11352539 C16.17034788 3.08464025 13.02456742 3.06676616 9.87866211 3.05102539 C8.98083008 3.04264648 8.08299805 3.03426758 7.15795898 3.02563477 C6.30395508 3.02241211 5.44995117 3.01918945 4.57006836 3.01586914 C3.38392944 3.00801392 3.38392944 3.00801392 2.17382812 3 C0.30023522 2.9085663 0.30023522 2.9085663 -0.68383789 4.11352539 C-0.78230756 5.67351587 -0.81182407 7.23793083 -0.81323242 8.80102539 C-0.81638458 9.79875977 -0.81953674 10.79649414 -0.82278442 11.82446289 C-0.82076019 12.90985352 -0.81873596 13.99524414 -0.81665039 15.11352539 C-0.81760712 16.21954102 -0.81856384 17.32555664 -0.81954956 18.46508789 C-0.82023156 20.80883847 -0.81837593 23.15259092 -0.81420898 25.49633789 C-0.80886103 29.09794327 -0.81415336 32.69942392 -0.82055664 36.30102539 C-0.81989586 38.571859 -0.81861471 40.84269253 -0.81665039 43.11352539 C-0.81867462 44.19891602 -0.82069885 45.28430664 -0.82278442 46.40258789 C-0.81805618 47.89918945 -0.81805618 47.89918945 -0.81323242 49.42602539 C-0.81243683 50.3090332 -0.81164124 51.19204102 -0.81082153 52.10180664 C-0.90654463 54.11120431 -0.90654463 54.11120431 0.31616211 55.11352539 C1.69776326 55.20630869 3.08404248 55.23099582 4.46875 55.22705078 C5.34958755 55.22697525 6.23042511 55.22689972 7.13795471 55.2268219 C8.57388222 55.21907997 8.57388222 55.21907997 10.03881836 55.21118164 C11.01402939 55.20976669 11.98924042 55.20835175 12.9940033 55.20689392 C16.12225354 55.20127672 19.25043334 55.18872132 22.37866211 55.17602539 C24.49389545 55.17101261 26.60912992 55.16644932 28.72436523 55.16235352 C33.92165507 55.1513017 39.11890356 55.13454685 44.31616211 55.11352539 C40.75117395 51.38261483 38.26975634 50.26459902 33.33959961 49.01977539 C31.31616211 48.11352539 31.31616211 48.11352539 30.03100586 46.24243164 C28.92767746 42.95656292 29.53030417 40.43830898 30.31616211 37.11352539 C32.55238349 34.19671489 34.47598927 33.22554844 38.12866211 32.73852539 C41.31616211 33.11352539 41.31616211 33.11352539 44.06616211 35.17602539 C46.57623029 38.45305885 47.28936898 41.1530376 48.31616211 45.11352539 C49.80037114 46.80688632 49.80037114 46.80688632 51.31616211 48.11352539 C51.34143335 41.86556864 51.35899555 35.61762498 51.37109375 29.36962891 C51.37613509 27.24234525 51.38296802 25.11506508 51.39160156 22.98779297 C51.4036759 19.93724713 51.40939225 16.88674694 51.41381836 13.83618164 C51.42156029 12.40025414 51.42156029 12.40025414 51.42945862 10.93531799 C51.42953415 10.05448044 51.42960968 9.17364288 51.4296875 8.26611328 C51.43190811 7.48667862 51.43412872 6.70724396 51.43641663 5.90419006 C51.51187597 4.08986004 51.51187597 4.08986004 50.31616211 3.11352539 C48.82977219 2.95697512 47.33667084 2.86285596 45.84350586 2.79711914 C44.49482422 2.73427734 44.49482422 2.73427734 43.11889648 2.67016602 C42.17336914 2.63084961 41.2278418 2.5915332 40.25366211 2.55102539 C39.30426758 2.5078418 38.35487305 2.4646582 37.37670898 2.42016602 C35.02334858 2.31373263 32.66987857 2.21171531 30.31616211 2.11352539 C30.31616211 1.45352539 30.31616211 0.79352539 30.31616211 0.11352539 C34.12864637 0.08465303 37.94110281 0.06677047 41.75366211 0.05102539 C42.84227539 0.04264648 43.93088867 0.03426758 45.05249023 0.02563477 C46.08696289 0.02241211 47.12143555 0.01918945 48.18725586 0.01586914 C49.14559326 0.01063232 50.10393066 0.00539551 51.09130859 0 C53.31616211 0.11352539 53.31616211 0.11352539 54.31616211 1.11352539 C54.40963126 2.77090983 54.43361188 4.43227183 54.4296875 6.09228516 C54.42961197 7.15330948 54.42953644 8.2143338 54.42945862 9.30751038 C54.42429733 10.46165939 54.41913605 11.61580841 54.41381836 12.80493164 C54.41240341 13.97990707 54.41098846 15.15488251 54.40953064 16.36546326 C54.40391203 20.13567603 54.39135637 23.90583043 54.37866211 27.67602539 C54.37364951 30.22485266 54.36908619 32.77368086 54.36499023 35.32250977 C54.35393655 41.58620172 54.33718032 47.84985939 54.31616211 54.11352539 C48.93152215 52.97073707 46.40932042 49.5234186 43.31616211 45.11352539 C42.29212359 42.72559277 41.79837981 40.68535312 41.31616211 38.11352539 C38.9708226 37.34396403 38.9708226 37.34396403 36.31616211 37.11352539 C34.31616211 38.11352539 34.31616211 38.11352539 33.31616211 40.11352539 C33.54660075 42.76818589 33.54660075 42.76818589 34.31616211 45.11352539 C34.88463867 45.24887695 35.45311523 45.38422852 36.03881836 45.52368164 C42.17807458 47.23529398 46.58087813 49.82887925 50.31616211 55.11352539 C50.31616211 56.10352539 50.31616211 57.09352539 50.31616211 58.11352539 C42.78646559 58.13879187 35.25677991 58.1563568 27.72705078 58.16845703 C25.16324454 58.17349909 22.5994412 58.18033253 20.03564453 58.18896484 C16.3596119 58.20103603 12.68361713 58.20675481 9.00756836 58.21118164 C7.85341934 58.21634293 6.69927032 58.22150421 5.51014709 58.2268219 C4.44912277 58.22689743 3.38809845 58.22697296 2.29492188 58.22705078 C1.35560318 58.22927139 0.41628448 58.231492 -0.55149841 58.23377991 C-2.68383789 58.11352539 -2.68383789 58.11352539 -3.68383789 57.11352539 C-3.78271581 55.36970004 -3.81182821 53.62186996 -3.81323242 51.87524414 C-3.81638458 50.75738525 -3.81953674 49.63952637 -3.82278442 48.48779297 C-3.82076019 47.27115967 -3.81873596 46.05452637 -3.81665039 44.80102539 C-3.81760712 43.5618335 -3.81856384 42.3226416 -3.81954956 41.04589844 C-3.82023163 38.41964258 -3.81887327 35.79347906 -3.81420898 33.16723633 C-3.8085117 29.79423825 -3.81179091 26.42131974 -3.81778145 23.04832458 C-3.82225559 19.84088862 -3.81912671 16.63346239 -3.81665039 13.42602539 C-3.81867462 12.20939209 -3.82069885 10.99275879 -3.82278442 9.73925781 C-3.81963226 8.62139893 -3.8164801 7.50354004 -3.81323242 6.35180664 C-3.81243683 5.36220947 -3.81164124 4.3726123 -3.81082153 3.35302734 C-3.62430685 0.06362732 -3.32408282 0.14060752 0 0 Z " fill="#000000" transform="translate(14.683837890625,10.886474609375)"/>
<path d="M0 0 C2.9375 2.0625 2.9375 2.0625 5 5 C5.61246525 8.87894656 5.69932657 10.95101015 3.5 14.25 C-0.61260642 17.1288245 -4.94779892 19 -10 19 C-9.75 17.125 -9.75 17.125 -9 15 C-6.18342165 13.08875041 -3.30377666 12.62503883 0 12 C1.27003323 10.94689723 1.27003323 10.94689723 1.1875 8.5625 C1.26839983 5.83265325 1.26839983 5.83265325 -1 4 C-3.5 3.58333333 -3.5 3.58333333 -6 4 C-8.12508244 7.18762365 -8.5020163 9.26512223 -9 13 C-10.32 13.33 -11.64 13.66 -13 14 C-12.77113691 12.22631108 -12.5160762 10.45598923 -12.25 8.6875 C-12.11078125 7.70136719 -11.9715625 6.71523438 -11.828125 5.69921875 C-10.01795091 -0.20092415 -5.64539809 -0.79233657 0 0 Z " fill="#000000" transform="translate(56,19)"/>
<path d="M0 0 C-0.66 1.65 -1.32 3.3 -2 5 C-3.11375 5.12375 -4.2275 5.2475 -5.375 5.375 C-9.03103677 5.6465813 -9.03103677 5.6465813 -11 8 C-11.41666667 10.5 -11.41666667 10.5 -11 13 C-8.21885944 15.33391203 -8.21885944 15.33391203 -5.3125 14.625 C-4.549375 14.41875 -3.78625 14.2125 -3 14 C-2.01 11.03 -1.02 8.06 0 5 C1.32 5 2.64 5 4 5 C3.57476184 6.60746056 3.13429874 8.21089836 2.6875 9.8125 C2.44386719 10.70582031 2.20023438 11.59914063 1.94921875 12.51953125 C0.95820006 15.10923029 0.18430381 16.32589854 -2 18 C-5.96273876 19.02737671 -8.11126973 19.40572469 -11.875 17.6875 C-14 16 -14 16 -15 14 C-15.48558881 9.7106322 -15.5281756 7.72023945 -12.9375 4.1875 C-8.84915083 1.14298466 -5.08306713 0 0 0 Z " fill="#000000" transform="translate(34,42)"/>
<path d="M0 0 C2.125 0.375 2.125 0.375 4 1 C4.625 2.875 4.625 2.875 5 5 C4.34 5.66 3.68 6.32 3 7 C0.875 6.625 0.875 6.625 -1 6 C-1.625 4.125 -1.625 4.125 -2 2 C-1.34 1.34 -0.68 0.68 0 0 Z " fill="#000000" transform="translate(51,49)"/>
<path d="M0 0 C2.125 0.375 2.125 0.375 4 1 C4.625 2.875 4.625 2.875 5 5 C4.34 5.66 3.68 6.32 3 7 C0.875 6.625 0.875 6.625 -1 6 C-1.625 4.125 -1.625 4.125 -2 2 C-1.34 1.34 -0.68 0.68 0 0 Z " fill="#000000" transform="translate(26,49)"/>
<path d="M0 0 C2.0625 0.4375 2.0625 0.4375 4 1 C4.33 2.32 4.66 3.64 5 5 C3.35 5.66 1.7 6.32 0 7 C-0.66 6.34 -1.32 5.68 -2 5 C-1.46428571 1.46428571 -1.46428571 1.46428571 0 0 Z " fill="#000000" transform="translate(26,24)"/>
<path d="M0 0 C1.32 0.33 2.64 0.66 4 1 C4.33 2.32 4.66 3.64 5 5 C3.02 5.99 3.02 5.99 1 7 C0.01 6.01 -0.98 5.02 -2 4 C-1.34 2.68 -0.68 1.36 0 0 Z " fill="#000000" transform="translate(51,24)"/>
<path d="M0 0 C0.99 0 1.98 0 3 0 C3 0.99 3 1.98 3 3 C2.01 3 1.02 3 0 3 C0 2.01 0 1.02 0 0 Z " fill="#000000" transform="translate(34,39)"/>
<path d="M0 0 C0.99 0 1.98 0 3 0 C3 0.99 3 1.98 3 3 C2.01 3 1.02 3 0 3 C0 2.01 0 1.02 0 0 Z " fill="#000000" transform="translate(43,38)"/>
<path d="M0 0 C0.99 0 1.98 0 3 0 C3 0.99 3 1.98 3 3 C2.01 3 1.02 3 0 3 C0 2.01 0 1.02 0 0 Z " fill="#000000" transform="translate(37,36)"/>
<path d="M0 0 C0.99 0 1.98 0 3 0 C3 0.99 3 1.98 3 3 C2.01 3 1.02 3 0 3 C0 2.01 0 1.02 0 0 Z " fill="#000000" transform="translate(37,19)"/>
<path d="M0 0 C0.99 0 1.98 0 3 0 C3 0.99 3 1.98 3 3 C2.01 3 1.02 3 0 3 C0 2.01 0 1.02 0 0 Z " fill="#000000" transform="translate(40,16)"/>
<path d="M0 0 C0.99 0 1.98 0 3 0 C3 0.99 3 1.98 3 3 C2.01 2.67 1.02 2.34 0 2 C0 1.34 0 0.68 0 0 Z " fill="#000000" transform="translate(40,41)"/>
<path d="M0 0 C0.99 0.33 1.98 0.66 3 1 C3 1.66 3 2.32 3 3 C2.01 3 1.02 3 0 3 C0 2.01 0 1.02 0 0 Z " fill="#000000" transform="translate(40,33)"/>
<path d="M0 0 C0.99 0.33 1.98 0.66 3 1 C3 1.66 3 2.32 3 3 C2.01 3 1.02 3 0 3 C0 2.01 0 1.02 0 0 Z " fill="#000000" transform="translate(43,13)"/>
<path d="M0 0 C0.66 0 1.32 0 2 0 C2 0.99 2 1.98 2 3 C1.01 2.67 0.02 2.34 -1 2 C-0.67 1.34 -0.34 0.68 0 0 Z " fill="#000000" transform="translate(38,44)"/>
</svg>
