<?xml version="1.0" standalone="no"?>
<!DOCTYPE svg PUBLIC "-//W3C//DTD SVG 20010904//EN"
 "http://www.w3.org/TR/2001/REC-SVG-20010904/DTD/svg10.dtd">
<svg version="1.0" xmlns="http://www.w3.org/2000/svg"
 width="1024.000000pt" height="1024.000000pt" viewBox="0 0 1024.000000 1024.000000"
 preserveAspectRatio="xMidYMid meet">

<g transform="translate(0.000000,1024.000000) scale(0.100000,-0.100000)"
fill="#000000" stroke="none">
<path d="M2176 6948 c-88 -172 -334 -654 -548 -1071 l-389 -758 54 -102 c30
-56 157 -302 282 -547 125 -245 344 -674 487 -955 144 -280 268 -516 276 -522
12 -10 80 -13 264 -13 136 0 248 3 248 6 0 4 -13 30 -29 58 -16 28 -201 389
-411 801 -210 413 -443 868 -517 1012 l-135 263 178 347 c97 192 329 645 514
1008 186 363 351 688 369 723 l31 62 -258 0 -258 0 -158 -312z"/>
<path d="M7518 7008 c71 -139 317 -621 546 -1070 l417 -818 -281 -552 c-156
-304 -399 -782 -542 -1061 -143 -280 -258 -510 -256 -512 9 -9 498 -9 506 0 5
6 195 375 422 820 227 446 471 922 542 1059 l128 249 -54 101 c-51 95 -516
1004 -877 1713 l-164 323 -258 0 -259 0 130 -252z"/>
<path d="M4720 6937 l-105 -42 -555 -5 -555 -5 -95 -32 c-122 -41 -204 -91
-297 -177 -207 -193 -370 -582 -432 -1036 -43 -308 -41 -751 5 -1070 56 -390
214 -780 394 -974 130 -140 350 -236 541 -236 l62 0 -6 -37 c-3 -21 -16 -154
-28 -295 -24 -271 -23 -288 21 -288 10 0 105 64 211 142 107 78 299 217 428
310 l234 168 1069 0 c935 0 1078 2 1146 16 94 19 189 58 268 109 271 178 485
652 546 1210 20 182 17 704 -5 880 -44 354 -130 633 -270 880 -47 84 -82 131
-147 196 -99 100 -185 154 -320 201 l-95 33 -560 5 c-308 3 -565 8 -572 13 -6
4 -54 23 -106 42 l-94 34 -66 -45 -66 -44 -152 0 -151 0 -65 45 c-35 25 -67
45 -71 44 -4 0 -54 -19 -112 -42z m188 -104 c43 -32 100 -73 125 -90 l47 -33
0 -86 0 -86 -80 72 c-44 40 -83 76 -86 81 -3 5 -14 13 -24 19 -16 8 -32 -1
-94 -54 l-75 -64 -44 16 c-40 14 -46 14 -83 -4 -23 -11 -47 -33 -58 -54 -50
-95 50 -208 147 -166 52 22 72 52 73 107 0 48 3 51 59 99 l59 50 41 -37 c22
-21 68 -65 103 -98 l62 -59 0 -273 c0 -161 4 -274 10 -278 13 -8 13 -1112 0
-1120 -6 -4 -10 -63 -10 -139 l0 -134 -115 -115 -115 -116 0 -95 0 -96 -45
-43 c-41 -40 -45 -48 -45 -91 0 -41 5 -53 34 -82 28 -28 42 -34 75 -34 123 0
175 127 87 208 l-36 32 0 88 0 87 81 80 80 80 -2 -308 -2 -307 -124 -113 c-69
-61 -130 -111 -136 -110 -7 2 -93 27 -192 57 l-180 54 -72 108 c-40 60 -73
114 -73 120 0 7 31 46 70 87 l70 75 -21 26 c-11 14 -26 26 -33 26 -7 0 -46
-34 -86 -76 l-74 -76 -56 23 c-30 12 -102 44 -160 70 l-105 46 -108 214 -107
214 5 118 5 117 -44 0 -44 0 -7 -115 c-9 -134 -17 -107 125 -398 l102 -208 56
-28 c32 -16 117 -55 191 -87 l134 -58 89 -136 89 -135 72 -23 c40 -12 143 -43
230 -68 l157 -46 48 40 c26 22 78 72 116 111 38 38 73 68 77 66 4 -3 7 -57 8
-120 l2 -115 -292 0 -292 0 -116 -83 c-113 -82 -636 -462 -656 -478 -18 -13
-17 43 5 256 25 247 25 291 4 299 -9 3 -55 6 -102 6 -118 0 -210 22 -317 73
-151 73 -258 191 -361 398 -96 194 -162 419 -206 712 -19 124 -22 185 -22 487
-1 276 3 370 17 470 40 286 99 501 192 696 112 237 215 358 376 437 148 74
175 77 643 84 397 6 409 5 402 -13 -4 -10 -37 -67 -74 -126 l-67 -107 -130
-55 -130 -56 -57 -144 c-32 -79 -60 -162 -64 -185 -4 -28 -19 -53 -46 -82 -42
-44 -58 -76 -58 -115 0 -21 4 -24 39 -24 34 0 40 4 49 28 5 15 22 42 37 60 23
28 33 32 74 32 44 0 50 -4 106 -60 l59 -60 175 0 174 0 -23 25 c-23 24 -28 25
-149 25 l-126 0 -70 70 c-64 64 -73 69 -112 70 -29 0 -43 4 -43 13 0 18 44
148 76 223 l26 62 97 41 c53 23 101 41 106 41 6 0 44 -34 85 -75 l74 -75 23
22 c13 12 23 26 23 32 0 6 -32 43 -71 82 l-72 72 76 115 75 114 68 26 c201 76
280 105 291 106 7 1 48 -25 91 -56z m237 -33 c-8 -13 -35 -13 -55 0 -11 7 -5
10 23 10 23 0 36 -4 32 -10z m1661 -36 c27 -9 53 -21 59 -26 5 -5 -8 -3 -30 4
-22 8 -46 14 -52 14 -44 3 -53 5 -53 14 0 14 19 12 76 -6z m185 -91 c13 -16
12 -17 -3 -4 -10 7 -18 15 -18 17 0 8 8 3 21 -13z m-1534 -8 c0 -8 -4 -12 -9
-9 -5 3 -6 10 -3 15 9 13 12 11 12 -6z m-46 -72 c13 -16 12 -17 -3 -4 -10 7
-18 15 -18 17 0 8 8 3 21 -13z m-736 -59 c26 -26 16 -77 -17 -88 -51 -18 -91
49 -52 88 20 21 48 20 69 0z m2551 -136 c13 -27 23 -48 21 -48 -14 0 -47 41
-47 59 0 12 -7 34 -16 49 -15 26 -15 26 1 7 9 -11 28 -41 41 -67z m-1661 -882
l128 -234 127 231 126 232 107 3 107 3 0 -416 0 -415 -105 0 -105 0 -2 225 -3
225 -95 -180 -95 -179 -61 -1 -61 0 -58 108 c-32 59 -75 137 -94 174 l-36 67
-3 -219 -2 -220 -105 0 -105 0 0 415 0 415 103 0 103 0 129 -234z m1005 -86
l0 -320 195 0 195 0 0 -95 0 -95 -310 0 -310 0 0 415 0 415 115 0 115 0 0
-320z m-1656 -1446 c32 -31 11 -84 -32 -84 -35 0 -52 16 -52 50 0 14 5 31 12
38 17 17 54 15 72 -4z"/>
<path d="M4814 6341 c-33 -20 -54 -64 -54 -112 0 -31 52 -99 76 -99 11 0 14
-23 14 -115 l0 -115 36 0 35 0 -2 112 c-1 111 -1 112 26 131 89 65 52 203 -57
214 -31 3 -52 -1 -74 -16z m104 -63 c7 -7 12 -24 12 -38 0 -14 -5 -31 -12 -38
-7 -7 -24 -12 -38 -12 -14 0 -31 5 -38 12 -7 7 -12 24 -12 38 0 14 5 31 12 38
7 7 24 12 38 12 14 0 31 -5 38 -12z"/>
<path d="M4205 6279 c-65 -38 -86 -89 -65 -154 22 -68 111 -96 177 -56 17 11
34 29 38 40 5 16 17 20 78 23 l72 4 97 -91 c57 -54 99 -101 103 -117 6 -22 13
-28 36 -28 27 0 29 3 29 36 0 32 -11 46 -117 149 l-118 114 -87 1 c-66 0 -88
3 -88 13 0 7 -13 26 -29 41 -32 31 -94 43 -126 25z m82 -71 c21 -27 21 -47 2
-72 -24 -30 -45 -33 -71 -9 -20 18 -24 63 -6 81 16 16 63 15 75 0z"/>
<path d="M4857 4774 c-4 -4 -7 -71 -7 -148 l0 -140 -131 -131 c-117 -116 -132
-134 -136 -170 -4 -32 -12 -45 -34 -58 -82 -47 -69 -180 20 -217 66 -27 153
23 167 94 8 44 -20 103 -58 125 -53 30 -41 54 107 201 l135 135 -2 155 -3 155
-25 3 c-14 2 -29 0 -33 -4z m-207 -714 c11 -11 20 -27 20 -35 0 -21 -36 -55
-59 -55 -20 0 -51 35 -51 57 0 18 37 53 55 53 8 0 24 -9 35 -20z"/>
<path d="M4570 4717 c0 -46 -4 -57 -30 -82 l-30 -29 -213 -1 -213 0 -41 43
c-36 38 -45 42 -86 42 -86 0 -148 -85 -117 -160 33 -79 128 -106 189 -55 16
14 33 35 36 46 7 20 12 20 233 14 l226 -5 58 57 58 57 0 63 0 63 -35 0 -35 0
0 -53z m-566 -129 c18 -52 -44 -89 -86 -51 -21 18 -23 36 -7 64 8 16 19 19 47
17 30 -2 38 -8 46 -30z"/>
<path d="M4710 4678 l0 -93 -137 -137 -136 -138 -63 0 c-48 0 -64 3 -64 14 0
8 -14 26 -31 40 -24 20 -41 26 -81 26 -44 0 -54 -4 -84 -34 -28 -28 -34 -42
-34 -75 0 -81 49 -131 126 -131 31 0 45 7 81 45 42 45 43 45 111 45 l68 0 157
159 157 159 0 106 0 106 -35 0 -35 0 0 -92z m-466 -380 c17 -27 -4 -72 -35
-76 -47 -5 -79 54 -47 86 17 17 69 11 82 -10z"/>
</g>
</svg>
